<?xml version="1.0" standalone="no"?>
<!DOCTYPE svg PUBLIC "-//W3C//DTD SVG 20010904//EN"
 "http://www.w3.org/TR/2001/REC-SVG-20010904/DTD/svg10.dtd">
<svg version="1.0" xmlns="http://www.w3.org/2000/svg"
 width="260.000000pt" height="260.000000pt" viewBox="0 0 260.000000 260.000000"
 preserveAspectRatio="xMidYMid meet">
<metadata>
Created by potrace 1.11, written by Peter Selinger 2001-2013
</metadata>
<g transform="translate(0.000000,260.000000) scale(0.100000,-0.100000)"
fill="#000000" stroke="none">
<path d="M1080 2541 c-41 -5 -124 -15 -185 -24 -60 -9 -123 -18 -140 -19 -24
-2 -30 -8 -30 -27 0 -23 -6 -26 -73 -37 -47 -8 -87 -22 -111 -38 -68 -47 -152
-128 -170 -165 -22 -41 -59 -78 -111 -109 -60 -36 -77 -61 -83 -129 -4 -34
-16 -86 -27 -115 -20 -52 -52 -244 -65 -383 -3 -38 -13 -97 -21 -130 -19 -72
-15 -109 27 -235 29 -88 30 -99 19 -142 -15 -62 -7 -95 50 -198 27 -47 51
-105 55 -130 5 -28 15 -50 28 -59 11 -8 42 -61 69 -118 41 -87 54 -107 81
-118 19 -8 40 -28 51 -50 17 -30 39 -46 135 -94 72 -36 145 -65 193 -75 43
-10 80 -21 83 -27 3 -5 31 -16 63 -25 45 -13 106 -17 312 -17 l256 -1 57 32
c31 18 66 32 77 32 11 0 63 21 116 46 58 27 106 44 122 42 20 -2 40 -21 78
-72 58 -77 83 -94 153 -103 132 -15 195 107 157 308 -22 116 -20 155 11 316
17 92 26 174 27 246 1 105 1 107 24 107 27 0 73 22 91 44 8 9 27 16 43 16 44
0 66 16 88 66 25 53 19 102 -15 134 -31 29 -119 54 -314 91 l-164 30 -101 -30
c-55 -16 -130 -32 -165 -36 -154 -15 -251 -90 -221 -171 24 -63 67 -91 205
-134 87 -26 143 -62 151 -96 5 -21 0 -33 -30 -63 -35 -36 -46 -61 -26 -61 20
0 9 -21 -15 -30 -31 -12 -59 -56 -86 -139 -17 -50 -34 -76 -83 -126 -70 -71
-193 -147 -285 -175 -88 -28 -235 -27 -344 1 -45 12 -110 22 -144 22 -53 0
-63 2 -69 19 -9 30 -60 83 -166 175 -123 106 -142 139 -133 233 6 60 4 75 -20
131 -15 35 -34 89 -43 120 -17 62 -12 112 38 324 21 86 21 93 6 170 -10 52
-15 117 -13 185 l4 105 39 41 c21 22 53 64 69 93 26 46 43 62 120 108 126 76
128 79 121 130 -7 51 -4 52 101 27 51 -12 89 -14 153 -8 117 10 173 6 218 -16
31 -15 46 -17 78 -9 37 10 44 8 119 -38 87 -51 255 -205 255 -233 0 -26 48
-181 64 -205 8 -12 39 -35 70 -51 52 -27 70 -44 46 -44 -20 0 -9 -27 25 -60
31 -30 42 -34 89 -34 98 0 132 43 147 188 6 50 15 113 21 139 l10 48 -47 50
c-35 38 -46 56 -42 72 3 12 10 40 16 62 35 135 -25 345 -111 388 -35 17 -36
17 -104 -14 -53 -24 -88 -32 -151 -36 -103 -7 -230 13 -238 38 -6 17 -55 42
-120 59 -54 14 -272 20 -365 11z"/>
</g>
</svg>
